<svg version="1.2" baseProfile="tiny-ps" xmlns="http://www.w3.org/2000/svg" viewBox="0 0 66 79" width="66" height="79">
	<title>sec3</title>
	<style>
		tspan { white-space:pre }
		.shp0 { fill: #ffffff } 
	</style>
	<g id="sec3">
		<path id="Shape 13" class="shp0" d="M47.61 0.01C37.5 0.9 29.96 9.32 31.71 19.22C42.29 18.24 47.1 11.32 47.61 0.01ZM63.52 25.95C54.8 12.31 40.69 22.17 33.58 22.1C28.07 22.05 24.65 17.94 18.61 18.26C-10.6 19.8 -1.36 75.32 18.61 78.79C23.85 79.7 28 75.83 34.51 75.9C40.81 75.98 43.37 79.93 49.49 78.79C58.08 77.18 60.03 66.54 65.39 59.57C55.12 54.04 50.01 33.38 63.52 25.95Z" />
	</g>
</svg>