<svg version="1.2" baseProfile="tiny-ps" xmlns="http://www.w3.org/2000/svg" viewBox="0 0 77 71" width="77" height="71">
	<title>sec3</title>
	<style>
		tspan { white-space:pre }
		.shp0 { fill: #ffffff } 
	</style>
	<g id="sec3">
		<path id="Shape 14" class="shp0" d="M37.37 0.02C34.61 0.02 32.36 1.93 31.85 4.54L31.7 4.54L13.58 24.94L22.64 24.94L35.18 10.85C35.85 11.13 36.59 11.35 37.37 11.35C38.15 11.35 38.88 11.13 39.57 10.85L52.09 24.94L61.16 24.94L43.03 4.54L42.89 4.54C42.39 1.93 40.13 0.02 37.37 0.02L37.37 0.02ZM4.52 29.47C2.01 29.47 -0.02 31.49 -0.02 34L-0.02 36.27C-0.02 38.66 1.82 40.54 4.17 40.73L11.31 65.72C13.58 70.26 15.85 70.26 18.1 70.26L58.9 70.26C61.16 70.26 63.42 70.26 65.69 65.72L72.85 40.73C75.18 40.54 77.02 38.66 77.02 36.27L77.02 34C77.02 31.49 75 29.47 72.49 29.47L4.52 29.47L4.52 29.47ZM17.27 40.8L18.39 40.8C20.91 40.8 23.38 42.69 23.91 45.04L27.1 59.14C27.63 61.51 26.01 63.45 23.49 63.45L22.35 63.45C19.84 63.45 17.37 61.51 16.83 59.14L13.65 45.04C13.12 42.69 14.75 40.8 17.27 40.8L17.27 40.8ZM38.51 40.8C41.02 40.8 43.03 42.82 43.03 45.33L43.03 58.93C43.03 61.44 41.02 63.45 38.51 63.45C35.99 63.45 33.97 61.44 33.97 58.93L33.97 45.33C33.97 42.82 35.99 40.8 38.51 40.8L38.51 40.8ZM58.61 40.8L59.75 40.8C62.26 40.8 63.88 42.69 63.35 45.04L60.17 59.14C59.63 61.51 57.16 63.45 54.65 63.45L53.51 63.45C51 63.45 49.37 61.51 49.9 59.14L53.09 45.04C53.62 42.69 56.09 40.8 58.61 40.8L58.61 40.8Z" />
	</g>
</svg>