<svg version="1.2" baseProfile="tiny-ps" xmlns="http://www.w3.org/2000/svg" viewBox="0 0 56 74" width="56" height="74">
	<title>sec3</title>
	<style>
		tspan { white-space:pre }
		.shp0 { fill: #ffffff } 
	</style>
	<g id="sec3">
		<path id="Shape 15" class="shp0" d="M53.4 72.03C52.09 73.34 50.52 73.99 48.67 73.99L6.7 73.99C4.85 73.99 3.27 73.34 1.96 72.03C0.66 70.73 0.01 69.15 0.01 67.3L0.01 36.13C0.01 34.28 0.66 32.71 1.96 31.4C3.27 30.1 4.85 29.44 6.7 29.44L6.99 29.44L6.99 22.47C6.99 19.53 7.51 16.75 8.56 14.1C9.61 11.46 11.08 9.15 12.97 7.17C14.84 5.19 17.04 3.63 19.56 2.49C22.08 1.33 24.77 0.76 27.64 0.76C30.56 0.76 33.3 1.33 35.81 2.49C38.33 3.63 40.53 5.19 42.41 7.17C44.29 9.15 45.75 11.46 46.8 14.1C47.86 16.75 48.38 19.53 48.38 22.47L48.38 29.44L48.67 29.44C50.52 29.44 52.09 30.1 53.4 31.4C54.71 32.71 55.36 34.28 55.36 36.13L55.36 67.3C55.36 69.15 54.71 70.73 53.4 72.03ZM40.55 22.47C40.55 20.49 40.2 18.64 39.49 16.92C38.79 15.2 37.85 13.71 36.67 12.48C35.49 11.23 34.12 10.26 32.56 9.56C31 8.86 29.36 8.51 27.64 8.51C25.92 8.51 24.28 8.86 22.71 9.56C21.15 10.26 19.8 11.23 18.65 12.48C17.5 13.71 16.58 15.2 15.88 16.92C15.17 18.64 14.82 20.49 14.82 22.47L14.82 29.44L40.64 29.44L40.55 22.47ZM34.33 44.65C34.33 42.92 33.71 41.44 32.46 40.2C31.23 38.95 29.71 38.34 27.93 38.34C26.2 38.34 24.72 38.95 23.48 40.2C22.23 41.44 21.62 42.92 21.62 44.65C21.62 46.68 22.38 48.31 23.91 49.52L22 64.52L33.95 64.52L32.03 49.52C33.57 48.31 34.33 46.68 34.33 44.65Z" />
	</g>
</svg>