<svg version="1.2" baseProfile="tiny-ps" xmlns="http://www.w3.org/2000/svg" viewBox="0 0 71 82" width="71" height="82">
	<title>sec3</title>
	<style>
		tspan { white-space:pre }
		.shp0 { fill: #ffffff } 
	</style>
	<g id="sec3">
		<path id="Shape 12" class="shp0" d="M35.08 82.01C15.71 82.01 0.01 66.31 0.01 46.94C0.01 30.93 10.74 17.46 25.41 13.25L25.41 24.47C16.7 28.22 10.61 36.86 10.61 46.94C10.61 60.45 21.56 71.41 35.08 71.41C48.59 71.41 59.54 60.45 59.54 46.94C59.54 36.96 53.55 28.38 44.98 24.58L44.98 13.31C59.52 17.59 70.15 31.02 70.15 46.94C70.15 66.31 54.45 82.01 35.08 82.01ZM34.96 53.58C32.13 53.58 29.83 51.29 29.83 48.46L29.83 5.11C29.83 2.28 32.13 -0.01 34.96 -0.01C37.79 -0.01 40.09 2.28 40.09 5.11L40.09 48.46C40.09 51.29 37.79 53.58 34.96 53.58Z" />
	</g>
</svg>