<svg version="1.2" baseProfile="tiny-ps" xmlns="http://www.w3.org/2000/svg" viewBox="0 0 81 81" width="81" height="81">
	<title>sec3</title>
	<style>
		tspan { white-space:pre }
		.shp0 { fill: #ffffff } 
	</style>
	<g id="sec3">
		<path id="Shape 11" class="shp0" d="M79.14 76.84L76.77 79.21C74.39 81.59 70.53 81.59 68.15 79.21L53.25 64.31C47.9 67.66 41.58 69.6 34.8 69.6C15.58 69.6 0 54.02 0 34.8C0 15.58 15.58 0 34.8 0C54.02 0 69.6 15.58 69.6 34.8C69.6 41.62 67.64 47.98 64.25 53.35L79.14 68.23C81.52 70.61 81.52 74.47 79.14 76.84ZM34.8 9.63C20.9 9.63 9.63 20.9 9.63 34.8C9.63 48.7 20.9 59.97 34.8 59.97C48.7 59.97 59.97 48.7 59.97 34.8C59.97 20.9 48.7 9.63 34.8 9.63Z" />
	</g>
</svg>