<svg version="1.2" baseProfile="tiny-ps" xmlns="http://www.w3.org/2000/svg" viewBox="0 0 30 56" width="30" height="56">
	<title>banner</title>
	<style>
		tspan { white-space:pre }
		.shp0 { opacity: 0.529;fill: #ffffff } 
	</style>
	<g id="banner">
		<g id="slider">
			<path id="Shape 1" fill-rule="evenodd" class="shp0" d="M4.67 0.32L24.93 0.32C27.42 0.32 29.44 2.33 29.44 4.82L29.44 51.16C29.44 53.65 27.42 55.66 24.93 55.66L4.67 55.66C2.19 55.66 0.17 53.65 0.17 51.16L0.17 4.82C0.17 2.33 2.19 0.32 4.67 0.32ZM2.61 46.84L27.37 46.84L27.37 8.01L2.61 8.01L2.61 46.84ZM10.8 4.57C10.8 4.95 11.11 5.26 11.49 5.26L18.24 5.26C18.62 5.26 18.93 4.95 18.93 4.57C18.93 4.19 18.62 3.88 18.24 3.88L11.49 3.88C11.11 3.88 10.8 4.19 10.8 4.57ZM12.93 51.1C12.93 52.24 13.85 53.16 14.99 53.16C16.13 53.16 17.06 52.24 17.06 51.1C17.06 49.96 16.13 49.03 14.99 49.03C13.85 49.03 12.93 49.96 12.93 51.1Z" />
		</g>
	</g>
</svg>