<svg version="1.2" baseProfile="tiny-ps" xmlns="http://www.w3.org/2000/svg" viewBox="0 0 44 67" width="44" height="67">
	<title>banner</title>
	<style>
		tspan { white-space:pre }
		.shp0 { opacity: 0.529;fill: #ffffff } 
	</style>
	<g id="banner">
		<g id="slider">
			<path id="Shape 2" fill-rule="evenodd" class="shp0" d="M4.24 0.45L40.61 0.45C42.48 0.45 43.99 1.97 43.99 3.84L43.99 63.47C43.99 65.34 42.48 66.85 40.61 66.85L4.24 66.85C2.37 66.85 0.85 65.34 0.85 63.47L0.85 3.84C0.85 1.97 2.37 0.45 4.24 0.45ZM3.39 60.37L41.45 60.37L41.45 7.5L3.39 7.5L3.39 60.37ZM22.28 4.26C22.28 4.57 22.53 4.82 22.85 4.82C23.16 4.82 23.41 4.57 23.41 4.26C23.41 3.95 23.16 3.7 22.85 3.7C22.53 3.7 22.28 3.95 22.28 4.26ZM20.78 63.68C20.78 64.63 21.55 65.4 22.49 65.4C23.44 65.4 24.21 64.63 24.21 63.68C24.21 62.73 23.44 61.97 22.49 61.97C21.55 61.97 20.78 62.73 20.78 63.68Z" />
		</g>
	</g>
</svg>