<svg version="1.2" baseProfile="tiny-ps" xmlns="http://www.w3.org/2000/svg" viewBox="0 0 66 64" width="66" height="64">
	<title>banner</title>
	<style>
		tspan { white-space:pre }
		.shp0 { opacity: 0.529;fill: #ffffff } 
	</style>
	<g id="banner">
		<g id="slider">
			<path id="Shape 3" fill-rule="evenodd" class="shp0" d="M4.08 -0.12L62.71 -0.12C64.55 -0.12 66.05 1.38 66.05 3.22L66.05 51.02C66.05 52.86 64.55 54.35 62.71 54.35L41.91 54.35C42.02 60.13 44.96 62.82 44.96 62.82L44.96 64L21.79 64L21.79 62.82C25.75 60.76 25.04 55.07 24.93 54.35L4.08 54.35C2.24 54.35 0.75 52.86 0.75 51.02L0.75 3.22C0.75 1.38 2.24 -0.12 4.08 -0.12ZM3.92 6.71L3.92 39.19C3.92 41.03 5.41 42.52 7.25 42.52L59.55 42.52C61.39 42.52 62.88 41.03 62.88 39.19L62.88 6.71C62.88 4.87 61.39 3.38 59.55 3.38L7.25 3.38C5.41 3.38 3.92 4.87 3.92 6.71ZM32.95 47.55C32.95 47.55 31.81 46.75 31.3 47.98C31.3 47.98 30.82 49.25 32.02 50.52C32.02 50.52 32.65 50.85 33.09 50.63C33.09 50.63 33.9 50.92 34.23 50.6C34.56 50.27 34.62 49.83 34.83 49.57C34.83 49.57 33.87 48.99 34.73 47.78C34.73 47.78 34.58 47.4 34.1 47.33C33.63 47.26 32.95 47.55 32.95 47.55ZM33.02 47.08C33.02 47.08 33.79 47.18 34.11 46.46C34.11 46.46 33.34 46.09 33.02 47.08Z" />
		</g>
	</g>
</svg>