<svg version="1.2" baseProfile="tiny-ps" xmlns="http://www.w3.org/2000/svg" viewBox="0 0 72 103" width="72" height="103">
	<title>about</title>
	<style>
		tspan { white-space:pre }
		.shp0 { fill: #ffffff } 
	</style>
	<g id="about">
		<path id="Shape 7" class="shp0" d="M63.78 102.9L8.22 102.9C3.67 102.9 -0.01 99.21 -0.01 94.67L-0.01 8.24C-0.01 3.69 3.67 0.01 8.22 0.01L63.78 0.01C68.33 0.01 72.01 3.69 72.01 8.24L72.01 94.67C72.01 99.21 68.33 102.9 63.78 102.9ZM35.74 100.59C39.36 100.59 42.3 97.65 42.3 94.03C42.3 90.4 39.36 87.47 35.74 87.47C32.12 87.47 29.18 90.4 29.18 94.03C29.18 97.65 32.12 100.59 35.74 100.59ZM46.55 3.09L24.94 3.09C24.23 3.09 23.65 3.67 23.65 4.38C23.65 5.09 24.23 5.67 24.94 5.67L46.55 5.67C47.26 5.67 47.83 5.09 47.83 4.38C47.83 3.67 47.26 3.09 46.55 3.09ZM66.61 8.75L4.62 8.75L4.62 84.64L66.61 84.64L66.61 8.75ZM34.3 90.94L37.48 90.94C38.34 90.94 39.05 91.64 39.05 92.5L39.05 95.93C39.05 96.79 38.34 97.49 37.48 97.49L34.3 97.49C33.44 97.49 32.73 96.79 32.73 95.93L32.73 92.5C32.73 91.64 33.44 90.94 34.3 90.94Z" />
	</g>
</svg>