<svg version="1.2" baseProfile="tiny-ps" xmlns="http://www.w3.org/2000/svg" viewBox="0 0 220 220" width="220" height="220">
	<title>sec4</title>
	<style>
		tspan { white-space:pre }
		.shp0 { fill: #ffffff } 
	</style>
	<g id="sec4">
		<path id="Shape 8" class="shp0" d="M218.06 217.79C216.76 219.09 214.98 219.82 213.15 219.82L133.16 219.82C131.28 219.83 129.53 219.06 128.25 217.79C127.62 217.16 127.1 216.4 126.74 215.55C125.66 212.95 126.26 209.97 128.25 207.98L152.68 189.7L116.62 153.64L116.63 153.63C116.55 153.55 116.46 153.49 116.38 153.4C106.08 143.1 106.08 126.41 116.38 116.11C126.67 105.82 143.37 105.82 153.67 116.11C153.75 116.2 153.82 116.28 153.9 116.37L153.91 116.36L189.97 152.42L208.24 127.99C210.22 126.01 213.21 125.4 215.8 126.48C218.4 127.56 220.09 130.09 220.09 132.9L220.09 212.88C220.09 214.7 219.35 216.5 218.06 217.79ZM66.37 103.82C66.29 103.74 66.22 103.65 66.14 103.57L66.13 103.58L30.07 67.52L11.8 91.95C9.82 93.93 6.83 94.53 4.24 93.45C1.64 92.38 -0.05 89.85 -0.05 87.04L-0.05 7.05C-0.05 5.23 0.69 3.43 1.98 2.14C3.28 0.85 5.06 0.12 6.89 0.11L86.88 0.11C88.76 0.11 90.51 0.87 91.79 2.15C92.42 2.78 92.94 3.54 93.3 4.39C94.38 6.99 93.78 9.97 91.79 11.96L67.36 30.23L103.42 66.29L103.41 66.3C103.49 66.38 103.58 66.45 103.66 66.53C113.96 76.83 113.96 93.53 103.66 103.83C93.37 114.12 76.67 114.12 66.37 103.82Z" />
	</g>
</svg>