<svg version="1.2" baseProfile="tiny-ps" xmlns="http://www.w3.org/2000/svg" viewBox="0 0 55 55" width="55" height="55">
	<title>banner</title>
	<style>
		tspan { white-space:pre }
		.shp0 { opacity: 0.651;fill: #ffffff } 
	</style>
	<g id="banner">
		<path id="Shape 2" class="shp0" d="M27.5 0.01C12.33 0.01 0.01 12.33 0.01 27.5C0.01 42.67 12.33 54.99 27.5 54.99C42.67 54.99 54.99 42.67 54.99 27.5C54.99 12.33 42.67 0.01 27.5 0.01L27.5 0.01ZM27.5 2.81C37.26 2.81 45.7 8.5 49.7 16.72L49.7 16.78C49.73 17.07 49.76 17.36 49.75 17.68C49.95 17.84 50.2 18.12 50.45 18.42C51.01 19.84 51.4 21.33 51.7 22.86C51.47 23.08 51.15 23.23 50.65 23.26C48.1 21.25 50.59 25.47 52 24.71C52.1 25.62 52.2 26.56 52.2 27.5C52.2 33.61 49.94 39.16 46.26 43.47C46.26 43.31 46.3 43.12 46.36 42.81C48.07 40.73 47.75 36.62 44.26 37.08C42.45 38.5 39.93 40.33 37.72 38.23C35.42 36.16 36.49 32.73 37.78 30.4C39.06 28.52 39.48 25.76 41.77 24.81C44.02 25.32 46.78 25.17 47.61 22.41C48.31 21.18 47.91 20.77 47.26 20.47C47.19 20.44 47.15 20.44 47.11 20.42C46.36 20.11 45.41 19.86 45.31 18.77C45.98 17.62 44.56 15.26 44.01 17.37C45.17 18.69 45.44 22.64 42.66 21.17C43.65 22.75 39.09 21.74 39.97 23.96C40.69 26.37 35.84 27.74 37.22 24.66C38 22.39 36.87 18.98 38.88 17.53C38.85 17.46 39.06 17.15 38.97 17.47C39.04 17.43 39.09 17.36 39.17 17.32C40.93 16.11 36.94 12.48 37.18 14.73C38.89 15.62 37.95 17.43 36.28 16.53C34.53 15.66 33.89 10.85 36.33 11.19C38.17 11.43 36.41 9.49 35.58 8.55C35.49 8.98 35.36 8.46 35.43 8.4C35.39 8.35 35.31 8.28 35.28 8.24C35.51 5.35 30.69 7.88 29.89 5.3C26.86 3.8 23.39 3.72 20.01 3.96C21.31 3.54 22.63 3.3 24 3.11C24.14 3.09 24.27 3.07 24.4 3.06C24.78 3.02 25.16 2.97 25.5 2.91C26.16 2.86 26.83 2.81 27.5 2.81L27.5 2.81ZM17.18 6.1C20.62 7.24 15.43 10.89 18.03 12.33C18.29 12.33 18.5 12.4 18.72 12.48C18.79 12.41 18.81 12.45 18.82 12.54C19.98 13.08 20.23 14.74 18.32 14.63C15.68 13.88 14.63 19.52 17.22 18.82C18.17 16.16 21.04 17.28 21.56 19.62C23.11 22.02 19.95 21.99 18.87 23.01C19.96 24.98 16.95 23.94 15.83 24.91C13.68 25.38 13.01 28.65 11.13 28.75C11.06 25.33 5.36 26.48 6.29 29.59C7.51 30.54 9.13 31.53 8.89 33.54C8.8 37.78 14.01 36.38 16.33 38.63C19.17 39.87 21 42.44 23.51 44.12C25.68 43.37 29.7 45.44 27.55 48.05C26.26 49 24.77 49.84 23.21 50.4L23.21 50.45C22.27 50.79 21.25 51.02 20.26 51.1C18.35 50.51 16.52 49.67 14.83 48.65C14.82 48.64 14.84 48.62 14.83 48.61C14.06 46.36 11.99 44.97 10.59 43.16C9.85 42.42 9.75 41.59 9.79 40.72C9.8 40.72 9.77 40.68 9.79 40.67C9.88 39.23 10.39 37.74 9.34 36.43C7.71 33.71 5.66 31.21 4.6 28.2C4.49 25.08 4.31 22.09 5.35 19.12C7.66 14.38 13.41 9.32 17.18 6.1L17.18 6.1ZM24.51 9.94C24.6 9.94 24.69 9.97 24.81 9.99C25.41 9.99 25.2 10.66 24.81 10.84C23.39 12.17 23.04 10.22 24.21 9.99C24.29 9.97 24.41 9.94 24.51 9.94L24.51 9.94ZM26.45 10.39C27.47 10.26 28.5 10.67 28.8 11.88C29.51 14.74 26.66 16.59 25.6 18.92C22.98 18.19 25.75 15.29 24.6 13.88C23.03 12.25 24.74 10.61 26.45 10.39L26.45 10.39ZM21.31 13.23C22.98 13.13 22.66 16.8 21.27 17.37C20.05 16.26 21.65 14.62 20.96 13.33C21.1 13.29 21.21 13.24 21.31 13.23L21.31 13.23ZM35.63 19.12C36.18 19.09 37.4 19.65 37.28 20.42C36.76 21.3 35.28 21.22 35.83 19.92C35.24 19.37 35.31 19.14 35.63 19.12L35.63 19.12ZM21.27 22.91C21.92 22.8 23.31 23.29 22.02 24.06C22.43 23.62 21.71 23.79 21.61 23.81C20.78 23.23 20.87 22.98 21.27 22.91L21.27 22.91ZM16.03 24.95C16.21 24.98 15.97 25.22 15.73 25.16L15.68 25.16C15.64 25.14 15.61 25.09 15.58 25.06C15.81 24.96 15.95 24.95 16.03 24.95L16.03 24.95ZM10.94 31.89C11.05 31.86 11.17 31.88 11.34 31.89C11.47 31.91 11.65 31.95 11.79 31.99C11.79 32.02 11.78 32 11.79 32.04C12.33 32.23 12.83 32.65 12.58 33.33C12.17 33.5 11.73 33.2 11.49 32.89C10.59 32.34 10.6 31.99 10.94 31.89L10.94 31.89Z" />
	</g>
</svg>